<?xml version="1.0" encoding="UTF-8" standalone="no" ?>
<!DOCTYPE svg PUBLIC "-//W3C//DTD SVG 1.1//EN" "http://www.w3.org/Graphics/SVG/1.1/DTD/svg11.dtd">
<svg xmlns="http://www.w3.org/2000/svg" xmlns:xlink="http://www.w3.org/1999/xlink" version="1.1" width="48" height="48" viewBox="0 0 48 48" xml:space="preserve">
<defs>
</defs>
<g transform="matrix(1 0 0 1 25 22.5)" id="Fill-1-Copy-7"  >
<path style="stroke: none; stroke-width: 1; stroke-dasharray: none; stroke-linecap: butt; stroke-dashoffset: 0; stroke-linejoin: miter; stroke-miterlimit: 4; fill: rgb(247,170,22); fill-rule: evenodd; opacity: 1;"  transform=" translate(-22, -21.5)" d="M 41.2127203 38.7250894 C 41.1443742 38.8529047 40.9103404 38.9168124 40.7342973 38.8648874 L 36.6666667 37.6007137 L 36.6666667 5.77868455 L 40.7115153 4.59439541 C 40.9103404 4.53647907 41.1443742 4.59639252 41.25 4.88597418 L 41.2127203 38.7250894 Z M 3.28434252 38.8622189 C 3.08758849 38.9221411 2.85562585 38.8602215 2.75 38.5725952 L 2.78935081 4.72456577 C 2.85355475 4.59473442 3.08758849 4.53481227 3.32162223 4.60272405 C 3.33197771 4.60472145 4.74239343 4.97823623 7.20906763 5.69530472 L 7.33333333 5.73125801 L 7.33333333 37.679755 L 3.28434252 38.8622189 Z M 43.6865467 3.27662897 C 43.0435656 1.99594108 41.5426066 1.38064971 40.1059457 1.8155625 L 36.9312266 2.77758157 C 36.9030962 1.84562559 36.4228697 0.985821045 35.6211526 0.472744204 C 34.7611654 -0.0764083517 33.6942187 -0.150563989 32.7618961 0.272323563 L 25.9081195 3.42694445 C 25.186775 3.76765954 24.5417846 4.23664384 23.9510458 4.78178798 C 24.4433282 5.52935697 24.887387 6.32302271 25.2329893 7.19284829 C 25.7453649 6.59559478 26.3361038 6.10656842 27.0152525 5.7858954 L 33.8549639 2.64129554 C 34.0217371 2.56112728 34.1704265 2.63929133 34.2106128 2.66534602 C 34.3271532 2.73950165 34.3271532 2.82768674 34.3271532 2.85774983 L 34.3271532 40.1600395 C 34.3271532 40.2201657 34.2769203 40.2943213 34.2005663 40.3424223 C 34.0880446 40.4145737 33.9534204 40.4145737 33.8007124 40.3404181 L 27.0273084 37.2258813 C 24.7326697 36.1436099 23.3080647 33.3397251 23.3080647 29.9105279 L 23.3080647 13.0972404 L 23.3080647 13.0952362 C 23.3080647 10.9166638 22.8218102 8.92047422 21.955795 7.26700393 C 21.8171523 7.0064571 21.656407 6.76795654 21.5016897 6.52544756 C 21.3992145 6.36511105 21.306786 6.19675771 21.1982829 6.04443802 C 21.0295004 5.81395428 20.8366061 5.60752102 20.6497397 5.39507515 C 20.5311901 5.26079332 20.422687 5.11448625 20.2961001 4.98822124 C 20.0710567 4.76375013 19.8219015 4.5693421 19.5747557 4.37292988 C 19.4662526 4.286749 19.3718148 4.18854289 19.2592931 4.11037884 C 18.889579 3.8478278 18.501781 3.61533985 18.0898712 3.42293604 C 15.8153256 2.35068561 11.1898804 0.252281499 11.1255822 0.22422261 C 10.157092 -0.152568195 9.13234085 -0.0523578748 8.31253996 0.50881992 C 7.56909307 1.01588414 7.12302493 1.84161718 7.07681067 2.73749745 C 5.05342954 2.13423132 3.89405425 1.8155625 3.89204494 1.8155625 C 2.48150516 1.38866653 0.946387798 2.01798735 0.317471915 3.27061635 C 0.110512376 3.67947446 0 4.13843773 0 4.60140941 L 0 38.4043547 C 0 38.8713348 0.10850306 39.3182728 0.313453283 39.7251267 C 0.811763631 40.7212173 1.87469175 41.3224792 2.9918714 41.3224792 C 3.29125948 41.3224792 3.59466618 41.2783867 3.89204494 41.1902016 L 7.0687734 40.2281825 C 7.09288519 41.1340838 7.55301854 41.9778547 8.32057722 42.49494 C 9.14841538 43.0501052 10.2093342 43.1523197 11.2180108 42.7414574 L 18.0878619 39.5808239 C 18.8112156 39.2401088 19.4582154 38.7691203 20.0509636 38.2239761 C 19.5566718 37.4744029 19.1146223 36.6827414 18.76902 35.8129158 C 18.2566444 36.4121735 17.6638962 36.8991957 16.9827381 37.2198687 L 10.1791944 40.3524433 C 9.97625354 40.4326116 9.84162937 40.3744896 9.77934058 40.3344055 C 9.731117 40.300334 9.67284684 40.2442162 9.67284684 40.1560311 L 9.67284684 2.8797961 C 9.67284684 2.76154792 9.73513563 2.69340491 9.78536853 2.6613376 C 9.84162937 2.61924927 9.91597406 2.60521982 9.98630012 2.60521982 C 10.0305051 2.60521982 10.07471 2.61123244 10.1108777 2.62325768 C 10.1108777 2.62325768 14.7102018 4.70963655 16.9726916 5.77787857 C 19.2693397 6.86215424 20.6939447 9.6640348 20.6939447 13.0952362 L 20.6939447 29.9105279 C 20.6939447 32.0891003 21.1801991 34.0872941 22.0502329 35.7407644 C 22.190885 36.009328 22.3536396 36.2558454 22.5143849 36.504367 C 22.610832 36.6526783 22.6972326 36.8110106 22.7997077 36.9533093 C 22.9885834 37.2138561 23.2035802 37.446344 23.4145584 37.6828404 C 23.5130149 37.7890633 23.5994155 37.9093157 23.7018906 38.0135345 C 23.9490364 38.2580476 24.2202941 38.4724977 24.4895424 38.6849436 C 24.5779523 38.7510824 24.6543063 38.8332549 24.7447255 38.8973895 C 25.1043931 39.1519237 25.4861631 39.3723864 25.8840077 39.562786 C 25.8960636 39.5687986 25.9041008 39.5768155 25.9121381 39.5808239 C 25.9161567 39.5828281 25.918166 39.5848323 25.9221847 39.5868365 L 32.6955886 42.7013732 C 33.1195543 42.9017939 33.5716504 43 34.0177185 43 C 34.5702804 43 35.1168143 42.8476803 35.5970408 42.5430409 C 36.4349256 42.0159347 36.9352452 41.1300754 36.9392639 40.1700606 L 40.1079551 41.1902016 C 40.4033245 41.2783867 40.7087405 41.3224792 41.0061193 41.3224792 C 42.1253082 41.3224792 43.1882364 40.7212173 43.688556 39.7251267 C 43.8955156 39.310256 44 38.8653222 44 38.4043547 L 44 4.60140941 C 44 4.14445035 43.8935063 3.68749128 43.6865467 3.27662897 L 43.6865467 3.27662897 Z" stroke-linecap="round" />
</g>
</svg>